# xmcd
#
# Track frame offsets: 
#        150
#        9040
#        20345
#        53328
#        63903
#        85649
#        98181
#        122186
#        134863
#        146974
#
# Disc length: 2242 seconds
#
# Revision: 4
# Processed by: cddbd v1.5.2PL0 Copyright (c) Steve Scherf et al.
# Submitted via: ExactAudioCopy v1.0b3
#
DISCID=7e08c00a
DTITLE=Hubert Sumlin - Hubert Sumlin's Blues Party
DYEAR=1900
DGENRE=Blues
TTITLE0=Hidden Charms
TTITLE1=West Side Soul
TTITLE2=A Soul That's Been Abused
TTITLE3=Letter To My Girlfriend
TTITLE4=How Can You Leave Me, Little Girl?
TTITLE5=Can't Call You No More
TTITLE6=Blue Guitar
TTITLE7=Down In The Bottom
TTITLE8=Poor Me, Pour Me
TTITLE9=Living The Blues
EXTD=Black Top CD BT-1036\n\nHubert Sumlin:  guitar, vocals (tracks 5 
EXTD=& 10]\nMighty Sam McClain:  vocals (tracks 1, 3, 6, 8]\nMichael "
EXTD=Mudcat" Ward:  bass\nRonnie Earl:  guitar and slide guitar\nRon L
EXTD=evy:  piano, organ, vocals (track 9]\nGreg Piccolo:  tenor saxoph
EXTD=one, vocals (track 4]\nJerry Portnoy:  harmonica\nJohn Rossi:  dr
EXTD=ums\nDave Maxwell:  piano (tracks 6 - 8]\nDoug James:  baritone s
EXTD=axophone\nBob Enos:  trumpet\n\nSubmitted 6/20/97\n[Jmccoy@efn.or
EXTD=g]
EXTT0=
EXTT1=
EXTT2=
EXTT3=
EXTT4=
EXTT5=
EXTT6=
EXTT7=
EXTT8=
EXTT9=
PLAYORDER=
